# xmcd CD database file
#
# Track frame offsets:
#	150
#	24994
#	54000
#	80786
#	105611
#	134790
#	165521
#	187790
#	219045
#	244391
#	269088
#	300171
#
# Disc length: 4317 seconds
#
# Revision: 0
# Processed by: cddbd v1.5PL3 Copyright (c) Steve Scherf et al.
# Submitted via: CDex 1.51
#
DISCID=9810db0c
DTITLE=Rod Tate - A Musical Portrait
DYEAR=2004
DGENRE=Jazz
TTITLE0=Let's Stay Together(Green, Mitchell, Jackson)
TTITLE1=Rocket Love(S.Wonder)
TTITLE2='Til The Cops Come Knockin'(Maxwell)
TTITLE3=Hangin' Out(R.Tate)
TTITLE4=The Mystery Of Love(R.Tate)
TTITLE5=Keepin' It Real(R.Tate)
TTITLE6=Glide(R.Tate)
TTITLE7=In The Beginning...(R.Tate)
TTITLE8=Push Me Away(M.,M.,T.,J.,&R.Jackson)
TTITLE9=White Sands(R.Tate)
TTITLE10=Afternoon Siesta(R.Tate)
TTITLE11=Daddy and His Princess(fea. Ashley Tate)(R.Tate)
EXTD=YEAR: 2004
EXTT0=
EXTT1=
EXTT2=
EXTT3=
EXTT4=
EXTT5=
EXTT6=
EXTT7=
EXTT8=
EXTT9=
EXTT10=
EXTT11=
PLAYORDER=
